<svg xmlns="http://www.w3.org/2000/svg" width="121.011" height="21" viewBox="0 0 121.011 21">
  <path id="Nakheel_Brandmark_English_RGB_DeepNavy" d="M20.98,7.09H25.81v21H16.418l-4.5-20.819V28.088H7.09v-21h9.42l4.47,20.819Zm20.279,0h-9.48l-4.41,21h4.771l.871-4.171h7.021L40.9,28.09h4.771ZM33.819,20.171l2.7-12.9,2.7,12.9h-5.4Zm22.979-.51L64.028,7.09H58.657l-6.09,10.62V7.09H47.227v21h5.341V20.019h3.3l2.79,8.069h5.4l-2.909-8.429H56.8Zm20.308-4.38H73.446l-2.4,3.87V7.09H65.706v21h5.341v-8.7h6.06v8.7h5.341v-21H77.106v8.188Zm7.919,12.81h13.29v-3.9H90.366V19.3h6.359V15.4H92.616L90.366,19V10.99h7.949V7.09H85.026v21Zm15.388,0H113.7v-3.9h-7.949V19.3h6.359V15.4H108l-2.25,3.6V10.99H113.7V7.09h-13.29v21Zm20.729-3.9V7.09H115.8v21h12.3v-3.9h-6.961Z" transform="translate(-7.09 -7.09)" fill="#00263a"/>
</svg>
